<?xml version="1.0" encoding="UTF-8" standalone="no"?>
<!DOCTYPE svg PUBLIC "-//W3C//DTD SVG 1.1//EN" "http://www.w3.org/Graphics/SVG/1.1/DTD/svg11.dtd">
<svg width="100%" height="100%" viewBox="0 0 133 119" version="1.1" xmlns="http://www.w3.org/2000/svg" xmlns:xlink="http://www.w3.org/1999/xlink" xml:space="preserve" xmlns:serif="http://www.serif.com/" style="fill-rule:evenodd;clip-rule:evenodd;stroke-linejoin:round;stroke-miterlimit:1.41421;">
    <g transform="matrix(1,0,0,1,-332.434,-14.9101)">
        <g transform="matrix(1,0,0,1,0.475765,3.24321)">
            <path d="M449.967,113.241L432.189,113.947L428.803,104.284L427.335,100.096L425.155,91.947L420.637,75.028L419.157,69.491L414.377,71.892L413.54,72.314L410.906,73.634C410.906,73.634 410.621,75.7 407.844,77.179C405.073,78.653 403.934,75.984 403.934,75.984C401.658,76.411 401.157,74.226 401.157,74.226L403.616,71.073C401.869,71.289 400.161,71.005 399.951,68.444L405.004,63.191L407.275,60.83L426.663,53.488C430.738,56.135 435.376,61 440.145,66.395C441.107,67.476 441.63,68.876 441.624,70.322L441.493,93.199L449.967,113.241Z" style="fill:rgb(254,210,123);fill-rule:nonzero;"/>
        </g>
        <g transform="matrix(1,0,0,1,0.475765,3.24321)">
            <path d="M429.839,78.909L425.44,73.429L425.437,73.43C424.601,72.193 423.922,71.069 423.425,70.208C423.066,69.585 422.544,68.669 421.886,67.657L426.53,67.657C427.919,67.657 429.045,66.531 429.045,65.142L429.045,60.853L432.189,66.594L429.839,78.909ZM406.269,77.623C404.633,77.623 403.934,75.984 403.934,75.984C403.732,76.022 403.543,76.039 403.368,76.039C401.573,76.04 401.157,74.226 401.157,74.226L403.616,71.073C403.325,71.109 403.034,71.131 402.752,71.131C401.438,71.131 400.293,70.651 400.001,68.859L402.265,67.657L410.294,67.657C411.052,69.412 412.258,70.892 413.539,72.312L410.906,73.634C410.906,73.634 410.621,75.7 407.844,77.179C407.244,77.498 406.721,77.623 406.269,77.623Z" style="fill:rgb(253,191,91);fill-rule:nonzero;"/>
        </g>
        <g transform="matrix(1,0,0,1,0.475765,3.24321)">
            <path d="M406.125,44.19L404.982,66.213L399.359,69.201L397.652,71.568L397.384,72.097L393.629,79.535L393.344,80.104L385.024,96.59L357.788,96.59C361.982,86.011 369.033,75.546 374.9,67.22C376.903,64.369 378.758,61.791 380.318,59.538C381.575,57.722 382.64,56.118 383.425,54.763L385.889,35.506C388.427,26.281 392.98,23.305 393.19,18.069C393.196,17.967 393.151,15.059 393.173,13.26C393.185,12.395 393.879,11.678 394.75,11.667C398.335,11.639 399.388,15.474 398.881,19.998L398.864,20.124L396.986,32.285L397.271,34.282L402.176,31.112L406.125,44.19Z" style="fill:rgb(254,210,123);fill-rule:nonzero;"/>
        </g>
        <g transform="matrix(1,0,0,1,0.475765,3.24321)">
            <path d="M398.261,72.74L394.437,80.07L394.129,80.656L393.344,80.104L389.446,77.384L374.9,67.22L374.001,66.594L379.698,59.083L380.318,59.538L394.027,69.628L397.384,72.097L398.261,72.74Z" style="fill:rgb(236,228,218);fill-rule:nonzero;"/>
        </g>
        <g transform="matrix(1,0,0,1,0.475765,3.24321)">
            <path d="M395.33,80.656L375.065,130.621L331.958,130.621C338.132,118.818 367.906,73.987 374.001,66.594L374.917,67.198L389.611,76.883L393.629,79.535L394.437,80.07L395.33,80.656Z" style="fill:rgb(82,153,211);fill-rule:nonzero;"/>
        </g>
        <g transform="matrix(1,0,0,1,0.475765,3.24321)">
            <path d="M390.854,85.784C390.854,86.882 389.963,87.772 388.865,87.772C387.767,87.772 386.877,86.882 386.877,85.784C386.877,84.686 387.767,83.795 388.865,83.795C389.963,83.795 390.854,84.686 390.854,85.784Z" style="fill:rgb(236,228,218);fill-rule:nonzero;"/>
        </g>
        <g transform="matrix(1,0,0,1,0.475765,3.24321)">
            <path d="M397.384,72.097L394.027,69.628L395.979,65.536L396.576,44.765L394.556,32.285L398.596,19.247L398.599,19.256L398.599,21.837L396.986,32.285L397.271,34.282L398.599,33.424L398.599,65.142C398.599,66.531 399.725,67.657 401.114,67.657L402.265,67.657L400.001,68.859L399.359,69.201L397.652,71.568L397.384,72.097Z" style="fill:rgb(253,191,91);fill-rule:nonzero;"/>
        </g>
        <g transform="matrix(1,0,0,1,0.475765,3.24321)">
            <path d="M394.437,80.07L393.629,79.535L389.611,76.883L394.027,69.628L397.384,72.097L398.261,72.74L394.437,80.07Z" style="fill:rgb(218,204,186);fill-rule:nonzero;"/>
        </g>
        <g transform="matrix(1,0,0,1,0.475765,3.24321)">
            <path d="M375.065,130.621L372.265,130.621L383.248,96.59L389.446,77.384L389.611,76.883L393.629,79.535L394.437,80.07L395.33,80.656L375.065,130.621ZM388.865,83.795C387.767,83.795 386.877,84.686 386.877,85.784C386.877,86.882 387.767,87.772 388.865,87.772C389.963,87.772 390.854,86.882 390.854,85.784C390.854,84.686 389.963,83.795 388.865,83.795Z" style="fill:rgb(52,107,161);fill-rule:nonzero;"/>
        </g>
        <g transform="matrix(1,0,0,1,0.475765,3.24321)">
            <path d="M388.865,87.772C387.767,87.772 386.877,86.882 386.877,85.784C386.877,84.686 387.767,83.795 388.865,83.795C389.963,83.795 390.854,84.686 390.854,85.784C390.854,86.882 389.963,87.772 388.865,87.772Z" style="fill:rgb(189,188,212);fill-rule:nonzero;"/>
        </g>
        <g transform="matrix(1,0,0,1,0.475765,3.24321)">
            <path d="M427.978,22.56C427.978,22.56 437.012,22.987 436.372,27.469C435.732,31.95 427.978,29.486 427.978,29.486L427.978,22.56Z" style="fill:rgb(254,210,123);fill-rule:nonzero;"/>
        </g>
        <g transform="matrix(1,0,0,1,0.475765,3.24321)">
            <path d="M426.53,67.657L401.114,67.657C399.725,67.657 398.599,66.531 398.599,65.142L398.599,15.92C398.599,14.531 399.725,13.405 401.114,13.405L426.53,13.405C427.919,13.405 429.045,14.531 429.045,15.92L429.045,65.142C429.045,66.531 427.919,67.657 426.53,67.657Z" style="fill:rgb(17,22,64);fill-rule:nonzero;"/>
        </g>
        <g transform="matrix(1,0,0,1,0.475765,3.24321)">
            <path d="M401.114,63.061C400.669,63.061 400.307,62.699 400.307,62.253L400.307,16.489C400.307,16.044 400.669,15.682 401.114,15.682L426.53,15.682C426.975,15.682 427.338,16.044 427.338,16.489L427.338,62.253C427.338,62.699 426.975,63.061 426.53,63.061L401.114,63.061Z" style="fill:rgb(82,153,211);fill-rule:nonzero;"/>
        </g>
        <g transform="matrix(1,0,0,1,0.475765,3.24321)">
            <path d="M414.391,14.522C414.391,14.836 414.136,15.091 413.822,15.091C413.508,15.091 413.253,14.836 413.253,14.522C413.253,14.208 413.508,13.953 413.822,13.953C414.136,13.953 414.391,14.208 414.391,14.522Z" style="fill:rgb(149,143,237);fill-rule:nonzero;"/>
        </g>
        <g transform="matrix(1,0,0,1,0.475765,3.24321)">
            <path d="M408.368,14.522C408.368,14.666 408.252,14.783 408.108,14.783L403.081,14.783C402.937,14.783 402.82,14.666 402.82,14.522C402.82,14.378 402.937,14.261 403.081,14.261L408.108,14.261C408.252,14.261 408.368,14.378 408.368,14.522Z" style="fill:rgb(149,143,237);fill-rule:nonzero;"/>
        </g>
        <g transform="matrix(1,0,0,1,0.475765,3.24321)">
            <path d="M426.53,63.203L401.114,63.203C400.869,63.203 400.636,63.109 400.459,62.941L400.656,62.735C400.78,62.853 400.943,62.918 401.114,62.918L426.53,62.918C426.897,62.918 427.195,62.62 427.195,62.254L427.195,16.489C427.195,16.307 427.123,16.137 426.992,16.011L427.19,15.806C427.376,15.986 427.48,16.229 427.48,16.489L427.48,62.254C427.48,62.777 427.053,63.203 426.53,63.203Z" style="fill:white;fill-rule:nonzero;"/>
        </g>
        <g transform="matrix(1,0,0,1,0.475765,3.24321)">
            <path d="M421.981,27.725C421.981,32.231 418.328,35.884 413.822,35.884C409.316,35.884 405.663,32.231 405.663,27.725C405.663,23.219 409.316,19.566 413.822,19.566C418.328,19.566 421.981,23.219 421.981,27.725Z" style="fill:rgb(254,210,123);fill-rule:nonzero;"/>
        </g>
        <g transform="matrix(1,0,0,1,0.475765,3.24321)">
            <path d="M400.459,62.941C400.269,62.759 400.164,62.515 400.164,62.254L400.164,16.489C400.164,15.966 400.59,15.539 401.114,15.539L426.53,15.539C426.777,15.539 427.011,15.634 427.19,15.806L426.992,16.011C426.867,15.89 426.703,15.824 426.53,15.824L401.114,15.824C400.747,15.824 400.449,16.122 400.449,16.489L400.449,62.254C400.449,62.436 400.522,62.608 400.656,62.735L400.459,62.941Z" style="fill:rgb(34,67,170);fill-rule:nonzero;"/>
        </g>
        <g transform="matrix(1,0,0,1,0.475765,3.24321)">
            <path d="M415.811,29.212C415.811,30.173 415.066,30.952 414.148,30.952C413.229,30.952 412.484,30.173 412.484,29.212C412.484,28.251 413.229,27.472 414.148,27.472C415.066,27.472 415.811,28.251 415.811,29.212Z" style="fill:rgb(254,210,123);fill-rule:nonzero;"/>
        </g>
        <g transform="matrix(1,0,0,1,0.475765,3.24321)">
            <path d="M415.204,22.714C414.494,21.522 412.946,21.131 411.754,21.842L411.394,22.057C410.202,22.767 409.811,24.315 410.521,25.507L411.089,26.535L412.333,26.535L411.376,24.997C410.946,24.277 411.183,23.341 411.903,22.911L412.264,22.696C412.984,22.266 413.92,22.503 414.35,23.224L415.105,24.491L415.96,23.981L415.204,22.714Z" style="fill:white;fill-rule:nonzero;"/>
        </g>
        <g transform="matrix(1,0,0,1,0.475765,3.24321)">
            <path d="M413.327,28.262C413.327,27.884 413.63,27.586 414.003,27.586C414.307,27.586 414.565,27.785 414.645,28.063L414.68,28.262C414.68,28.526 414.531,28.749 414.307,28.859L414.307,30.53L413.7,30.53L413.7,28.859C413.481,28.749 413.327,28.526 413.327,28.262ZM410.343,26.397L410.343,29.048C410.343,30.878 411.83,32.365 413.66,32.365L414.352,32.365C416.182,32.365 417.664,30.878 417.664,29.048L417.664,26.397L410.343,26.397Z" style="fill:white;fill-rule:nonzero;"/>
        </g>
        <g transform="matrix(1,0,0,1,0.475765,3.24321)">
            <path d="M429.045,34.831C429.045,34.831 425.986,38.779 429.045,41.695L429.045,42.798C429.045,42.798 424.635,45.821 429.045,49.734L429.045,56.1C429.045,56.1 432.708,56.029 432.886,53.113C433.064,50.196 430.29,49.947 430.29,49.947C430.29,49.947 433.494,50.158 433.313,45.252C433.274,44.192 432.459,42.585 431.108,42.478C431.108,42.478 433.775,42.407 433.847,39.633C433.89,37.937 433.482,36.269 433.158,35.227C432.949,34.555 432.471,34.001 431.842,33.685L429.045,32.283L429.045,34.831Z" style="fill:rgb(254,210,123);fill-rule:nonzero;"/>
        </g>
        <g transform="matrix(1,0,0,1,0.475765,3.24321)">
            <path d="M428.507,96.636C427.847,98.707 427.335,100.096 427.335,100.096C427.335,100.096 422.287,96.129 420.125,90.183C419.812,89.323 419.567,88.447 419.408,87.536C419.391,87.445 419.374,87.36 419.356,87.275C419.339,87.149 419.317,87.03 419.299,86.905C419.271,86.705 419.248,86.501 419.226,86.296C419.066,84.628 419.374,82.756 419.015,80.679C418.417,77.247 415.857,74.88 413.54,72.314C412.123,70.743 410.797,69.098 410.069,67.089C409.898,66.617 409.767,66.156 409.671,65.667C409.136,63.379 410.405,60.619 414.605,61.33C418.799,62.042 422.145,67.988 423.425,70.208C424.706,72.427 427.193,76.388 430.465,79.529C432.815,81.783 430.18,91.389 428.507,96.636Z" style="fill:rgb(254,210,123);fill-rule:nonzero;"/>
        </g>
        <g transform="matrix(1,0,0,1,0.475765,3.24321)">
            <path d="M448.268,104.715L429.768,115.091L426.831,105.232L443.385,97.274L448.268,104.715Z" style="fill:rgb(236,228,218);fill-rule:nonzero;"/>
        </g>
        <g transform="matrix(1,0,0,1,0.475765,3.24321)">
            <path d="M464.25,130.621L431.399,130.621L427.699,114.693L447.281,102.668L464.25,130.621Z" style="fill:rgb(82,153,211);fill-rule:nonzero;"/>
        </g>
        <g transform="matrix(1,0,0,1,0.475765,3.24321)">
            <path d="M435.739,118.633C435.739,119.731 434.849,120.621 433.751,120.621C432.653,120.621 431.763,119.731 431.763,118.633C431.763,117.535 432.653,116.645 433.751,116.645C434.849,116.645 435.739,117.535 435.739,118.633Z" style="fill:rgb(236,228,218);fill-rule:nonzero;"/>
        </g>
        <g transform="matrix(1,0,0,1,0.475765,3.24321)">
            <path d="M428.803,104.284L427.335,100.096C427.335,100.096 427.847,98.707 428.507,96.636L432.189,102.656L432.187,102.657C430.463,103.482 428.803,104.284 428.803,104.284Z" style="fill:rgb(253,191,91);fill-rule:nonzero;"/>
        </g>
        <g transform="matrix(1,0,0,1,0.475765,3.24321)">
            <path d="M427.335,100.096C427.335,100.096 422.287,96.129 420.125,90.183C419.812,89.278 419.567,88.401 419.408,87.536C419.391,87.445 419.374,87.36 419.356,87.275C419.339,87.149 419.317,87.03 419.299,86.905C419.271,86.705 419.248,86.501 419.226,86.296C419.187,85.892 419.176,85.476 419.176,85.048C419.176,84.448 419.198,83.824 419.198,83.176C419.198,82.38 419.165,81.547 419.015,80.679C418.417,77.247 415.857,74.88 413.54,72.314C413.54,72.313 413.539,72.312 413.539,72.312C412.258,70.892 411.052,69.412 410.294,67.657C410.214,67.471 410.139,67.282 410.069,67.089C411.64,68.535 413.028,70.197 414.377,71.892C416.306,74.294 418.173,76.769 420.477,78.909C420.99,84.406 422.839,88.51 425.155,91.947C425.958,93.142 426.817,94.251 427.699,95.316L428.507,96.636C427.847,98.707 427.335,100.096 427.335,100.096Z" style="fill:rgb(253,191,91);fill-rule:nonzero;"/>
        </g>
        <g transform="matrix(1,0,0,1,0.475765,3.24321)">
            <path d="M432.187,102.657L432.189,102.656C432.189,102.657 432.188,102.657 432.187,102.657Z" style="fill:rgb(235,208,161);fill-rule:nonzero;"/>
        </g>
        <g transform="matrix(1,0,0,1,0.475765,3.24321)">
            <path d="M413.822,46.918L413.694,47.046L413.694,50.262L413.822,50.39L413.95,50.262L413.95,47.046L413.822,46.918Z" style="fill:white;fill-rule:nonzero;"/>
        </g>
        <g transform="matrix(1,0,0,1,0.475765,3.24321)">
            <path d="M409.789,42.19C409.921,42.075 410.055,41.963 410.196,41.859C411.254,41.078 412.542,40.647 413.822,40.647L413.694,40.52L413.822,40.392C412.802,40.392 411.779,40.655 410.861,41.142C410.482,41.435 410.121,41.785 409.789,42.19Z" style="fill:white;fill-rule:nonzero;"/>
        </g>
        <g transform="matrix(1,0,0,1,0.475765,3.24321)">
            <path d="M418.112,54.88C417.826,55.162 417.515,55.42 417.178,55.644C415.436,56.804 413.167,56.975 411.257,56.09C410.767,55.863 410.313,55.567 409.897,55.216C410.245,55.62 410.622,55.966 411.016,56.252L411.149,56.322C411.995,56.713 412.908,56.906 413.818,56.906C414.895,56.906 415.968,56.635 416.918,56.103C417.345,55.766 417.748,55.357 418.112,54.88Z" style="fill:white;fill-rule:nonzero;"/>
        </g>
        <g transform="matrix(1,0,0,1,0.475765,3.24321)">
            <path d="M413.694,40.52L413.822,40.647C414.605,40.647 415.369,40.796 416.084,41.085L416.936,41.508C417.399,41.785 417.819,42.12 418.191,42.501C417.843,42.029 417.458,41.62 417.049,41.28L416.188,40.852C415.434,40.547 414.638,40.392 413.822,40.392L413.694,40.52Z" style="fill:white;fill-rule:nonzero;"/>
        </g>
        <g transform="matrix(1,0,0,1,0.475765,3.24321)">
            <path d="M413.694,41.172L413.822,41.045C412.489,41.045 411.184,41.52 410.148,42.383L410.131,42.563L410.23,42.609L410.311,42.579C411.302,41.754 412.548,41.3 413.822,41.3L413.694,41.172Z" style="fill:white;fill-rule:nonzero;"/>
        </g>
        <g transform="matrix(1,0,0,1,0.475765,3.24321)">
            <path d="M409.416,43.108C407.813,44.92 407.896,47.493 407.968,49.763L407.972,49.883L408.099,50.007L408.227,49.875L408.223,49.755C408.153,47.532 408.072,45.014 409.608,43.277L409.597,43.097L409.416,43.108Z" style="fill:white;fill-rule:nonzero;"/>
        </g>
        <g transform="matrix(1,0,0,1,0.475765,3.24321)">
            <path d="M408.281,50.905L408.141,50.791L408.027,50.931L408.051,51.129C408.353,53.294 409.847,55.167 411.857,55.903C412.495,56.136 413.159,56.25 413.819,56.25C415.153,56.25 416.469,55.785 417.515,54.899L417.53,54.719L417.35,54.704C415.857,55.969 413.786,56.337 411.945,55.663C410.023,54.959 408.594,53.166 408.305,51.094L408.281,50.905Z" style="fill:white;fill-rule:nonzero;"/>
        </g>
        <g transform="matrix(1,0,0,1,0.475765,3.24321)">
            <path d="M413.822,41.045L413.694,41.172L413.822,41.3C415.72,41.3 417.534,42.333 418.554,43.997C419.127,44.93 419.398,46.018 419.408,47.421C419.41,47.748 419.42,48.076 419.43,48.405C419.458,49.337 419.487,50.3 419.33,51.223C419.156,52.244 418.714,53.204 418.052,53.997L418.068,54.177L418.15,54.206L418.248,54.16C418.939,53.333 419.401,52.332 419.582,51.266C419.743,50.318 419.714,49.341 419.685,48.397C419.675,48.07 419.665,47.744 419.663,47.419C419.654,45.968 419.371,44.838 418.772,43.863C417.706,42.124 415.809,41.045 413.822,41.045Z" style="fill:white;fill-rule:nonzero;"/>
        </g>
        <g transform="matrix(1,0,0,1,0.475765,3.24321)">
            <path d="M409,45.398C409.095,45.405 409.144,45.373 409.163,45.32C409.783,43.56 411.354,42.256 413.167,41.999L413.356,41.976L413.471,41.836L413.331,41.722L413.131,41.746C411.225,42.016 409.573,43.386 408.922,45.235L409,45.398Z" style="fill:white;fill-rule:nonzero;"/>
        </g>
        <g transform="matrix(1,0,0,1,0.475765,3.24321)">
            <path d="M408.811,46.164L408.672,46.28C408.578,47.347 408.562,48.538 408.624,49.814L408.624,50.571C408.807,52.506 409.869,54.201 411.396,54.994L411.455,55.008L411.569,54.94L411.514,54.767C410.063,54.014 409.053,52.397 408.879,50.559L408.879,49.808C408.818,48.537 408.834,47.358 408.927,46.303L408.811,46.164Z" style="fill:white;fill-rule:nonzero;"/>
        </g>
        <g transform="matrix(1,0,0,1,0.475765,3.24321)">
            <path d="M419.046,49.198C419.041,48.904 419.045,48.606 419.049,48.306C419.061,47.378 419.073,46.419 418.812,45.519C418.212,43.453 416.401,41.927 414.306,41.721L414.166,41.836L414.281,41.975C416.273,42.171 417.996,43.624 418.567,45.59C418.817,46.454 418.805,47.394 418.793,48.303C418.789,48.605 418.785,48.906 418.79,49.203C418.809,50.232 418.785,51.42 418.271,52.493C417.387,54.338 415.462,55.483 413.478,55.342C413.105,55.316 412.735,55.246 412.381,55.135L412.221,55.219L412.304,55.379C412.678,55.496 413.067,55.57 413.461,55.597C413.576,55.606 413.691,55.61 413.807,55.61C415.768,55.609 417.624,54.435 418.502,52.604C419.04,51.48 419.065,50.257 419.046,49.198Z" style="fill:white;fill-rule:nonzero;"/>
        </g>
        <g transform="matrix(1,0,0,1,0.475765,3.24321)">
            <path d="M413.694,42.478L413.821,42.35C412.1,42.35 410.44,43.428 409.691,45.032C409.181,46.124 409.21,47.324 409.238,48.485L409.241,48.63C409.246,48.856 409.247,49.08 409.247,49.304C409.249,50.312 409.251,51.355 409.72,52.335L409.836,52.408L409.891,52.395L409.951,52.225C409.507,51.297 409.505,50.328 409.503,49.304C409.503,49.078 409.502,48.852 409.497,48.624L409.493,48.479C409.466,47.347 409.438,46.178 409.923,45.14C410.631,43.624 412.197,42.605 413.821,42.605L413.694,42.478Z" style="fill:white;fill-rule:nonzero;"/>
        </g>
        <g transform="matrix(1,0,0,1,0.475765,3.24321)">
            <path d="M417.237,52.966C416.074,54.51 414.032,55.098 412.271,54.397C411.57,54.117 410.949,53.656 410.476,53.063L410.296,53.043L410.276,53.223C410.777,53.851 411.435,54.339 412.177,54.634C412.704,54.844 413.255,54.945 413.802,54.945C415.192,54.945 416.557,54.293 417.441,53.119L417.416,52.94L417.237,52.966Z" style="fill:white;fill-rule:nonzero;"/>
        </g>
        <g transform="matrix(1,0,0,1,0.475765,3.24321)">
            <path d="M417.726,52.149L417.791,52.318L417.843,52.329L417.96,52.253C418.139,51.847 418.304,51.445 418.361,50.97C418.482,49.296 418.464,47.831 418.306,46.366C418.248,45.423 417.845,44.53 417.169,43.85L416.988,43.849L416.988,44.03C417.62,44.666 417.997,45.501 418.051,46.388C418.208,47.843 418.226,49.293 418.107,50.945C418.054,51.379 417.897,51.762 417.726,52.149Z" style="fill:white;fill-rule:nonzero;"/>
        </g>
        <g transform="matrix(1,0,0,1,0.475765,3.24321)">
            <path d="M413.823,42.35L413.694,42.478L413.822,42.605C414.672,42.605 415.527,42.874 416.23,43.362L416.302,43.385L416.408,43.33L416.375,43.152C415.63,42.635 414.723,42.35 413.823,42.35Z" style="fill:white;fill-rule:nonzero;"/>
        </g>
        <g transform="matrix(1,0,0,1,0.475765,3.24321)">
            <path d="M417.504,50.262C417.504,52.351 415.852,54.05 413.822,54.05C411.792,54.05 410.14,52.351 410.14,50.262L410.14,47.046C410.14,44.957 411.792,43.258 413.822,43.258C415.852,43.258 417.504,44.957 417.504,47.046L417.504,50.262ZM413.822,43.002C411.651,43.002 409.884,44.816 409.884,47.046L409.884,50.262C409.884,52.491 411.651,54.305 413.822,54.305C415.993,54.305 417.759,52.491 417.759,50.262L417.759,47.046C417.759,44.816 415.993,43.002 413.822,43.002Z" style="fill:white;fill-rule:nonzero;"/>
        </g>
        <g transform="matrix(1,0,0,1,0.475765,3.24321)">
            <path d="M416.869,50.262C416.869,51.991 415.502,53.397 413.822,53.397C412.142,53.397 410.775,51.991 410.775,50.262L410.775,47.046C410.775,45.317 412.142,43.911 413.822,43.911C415.502,43.911 416.869,45.317 416.869,47.046L416.869,50.262ZM413.822,43.655C412.001,43.655 410.519,45.176 410.519,47.046L410.519,50.262C410.519,52.132 412.001,53.653 413.822,53.653C415.643,53.653 417.124,52.132 417.124,50.262L417.124,47.046C417.124,45.176 415.643,43.655 413.822,43.655Z" style="fill:white;fill-rule:nonzero;"/>
        </g>
        <g transform="matrix(1,0,0,1,0.475765,3.24321)">
            <path d="M413.694,44.435L413.822,44.308L413.678,44.312C412.762,44.362 411.919,44.908 411.478,45.738C411.179,46.301 411.154,46.883 411.154,47.43L411.154,49.27C411.154,49.389 411.152,49.509 411.149,49.63C411.143,49.943 411.136,50.267 411.172,50.583C411.282,51.542 411.877,52.353 412.764,52.751C413.118,52.91 413.49,52.988 413.856,52.988C414.377,52.988 414.888,52.831 415.328,52.521L415.359,52.343L415.181,52.312C414.505,52.788 413.641,52.865 412.869,52.518C412.065,52.157 411.525,51.423 411.426,50.554C411.392,50.255 411.399,49.94 411.405,49.635C411.407,49.513 411.41,49.391 411.41,49.27L411.41,47.43C411.41,46.915 411.433,46.369 411.704,45.858C412.103,45.107 412.865,44.612 413.693,44.567L413.822,44.563L413.694,44.435Z" style="fill:white;fill-rule:nonzero;"/>
        </g>
        <g transform="matrix(1,0,0,1,0.475765,3.24321)">
            <path d="M413.822,44.308L413.694,44.435L413.822,44.563C414.653,44.563 415.441,45.018 415.878,45.749C416.191,46.273 416.234,46.835 416.234,47.365C416.234,47.694 416.24,48.025 416.246,48.357C416.258,49.037 416.271,49.741 416.229,50.422C416.202,50.849 416.067,51.264 415.839,51.622L415.878,51.798L415.947,51.818L416.054,51.759C416.306,51.365 416.455,50.908 416.484,50.438C416.527,49.746 416.514,49.037 416.501,48.352C416.496,48.022 416.489,47.692 416.489,47.365C416.489,46.826 416.443,46.197 416.098,45.619C415.615,44.81 414.743,44.308 413.822,44.308Z" style="fill:white;fill-rule:nonzero;"/>
        </g>
        <g transform="matrix(1,0,0,1,0.475765,3.24321)">
            <path d="M413.694,45.088L413.822,44.96L413.706,44.964C412.756,45.019 411.96,45.759 411.813,46.723C411.766,47.037 411.774,47.365 411.783,47.682C411.786,47.802 411.789,47.921 411.789,48.038L411.917,48.165L412.045,48.038C412.045,47.919 412.042,47.797 412.038,47.675C412.03,47.369 412.022,47.053 412.066,46.761C412.193,45.929 412.904,45.266 413.72,45.219L413.822,45.216L413.694,45.088Z" style="fill:white;fill-rule:nonzero;"/>
        </g>
        <g transform="matrix(1,0,0,1,0.475765,3.24321)">
            <path d="M411.917,48.874L411.789,49.002L411.788,49.411C411.788,49.685 411.787,49.958 411.789,50.232C411.796,51.088 412.28,51.853 413.024,52.18C413.28,52.293 413.549,52.347 413.816,52.347C414.468,52.347 415.105,52.024 415.494,51.446C415.827,50.953 415.854,50.418 415.854,49.822L415.854,47.964C415.854,47.856 415.857,47.746 415.86,47.634C415.869,47.293 415.879,46.94 415.81,46.609C415.61,45.654 414.774,44.96 413.822,44.96L413.694,45.088L413.822,45.216C414.654,45.216 415.385,45.824 415.559,46.661C415.622,46.963 415.613,47.301 415.605,47.627C415.602,47.741 415.599,47.854 415.599,47.964L415.599,49.822C415.599,50.395 415.575,50.869 415.282,51.303C414.803,52.014 413.896,52.284 413.126,51.946C412.475,51.66 412.05,50.986 412.045,50.23C412.043,49.957 412.043,49.684 412.044,49.412L412.045,49.002L411.917,48.874Z" style="fill:white;fill-rule:nonzero;"/>
        </g>
        <g transform="matrix(1,0,0,1,0.475765,3.24321)">
            <path d="M413.694,45.74L413.822,45.613C413.331,45.613 412.87,45.882 412.619,46.316C412.402,46.691 412.411,47.12 412.421,47.536L412.424,47.769L412.424,49.655L412.423,49.823C412.418,50.278 412.413,50.75 412.73,51.157C412.994,51.494 413.39,51.685 413.813,51.685L413.982,51.674C414.472,51.616 414.886,51.313 415.09,50.865L415.026,50.695L414.857,50.759C414.691,51.126 414.352,51.373 413.951,51.42C413.556,51.468 413.175,51.31 412.932,50.999C412.669,50.663 412.674,50.256 412.678,49.825L412.68,47.769L412.676,47.53C412.668,47.15 412.659,46.757 412.84,46.444C413.046,46.089 413.422,45.868 413.822,45.868L413.694,45.74Z" style="fill:white;fill-rule:nonzero;"/>
        </g>
        <g transform="matrix(1,0,0,1,0.475765,3.24321)">
            <path d="M415.089,49.978L415.219,49.853C415.238,48.955 415.238,48.022 415.238,47.109C415.178,46.376 414.633,45.616 413.822,45.613L413.694,45.74L413.821,45.868C414.485,45.872 414.933,46.512 414.983,47.12C414.983,48.021 414.983,48.953 414.964,49.847L415.089,49.978Z" style="fill:white;fill-rule:nonzero;"/>
        </g>
        <g transform="matrix(1,0,0,1,0.475765,3.24321)">
            <path d="M414.329,50.262C414.329,50.551 414.101,50.787 413.822,50.787C413.542,50.787 413.315,50.551 413.315,50.262L413.315,47.046C413.315,46.757 413.541,46.522 413.82,46.521L413.732,46.484L413.694,46.394L413.732,46.302L413.912,46.302L413.95,46.394L413.912,46.484L413.824,46.521C414.103,46.523 414.329,46.757 414.329,47.046L414.329,50.262ZM413.822,46.265C413.401,46.265 413.059,46.615 413.059,47.046L413.059,50.262C413.059,50.692 413.401,51.042 413.822,51.042C414.242,51.042 414.584,50.692 414.584,50.262L414.584,47.046C414.584,46.615 414.242,46.265 413.822,46.265Z" style="fill:white;fill-rule:nonzero;"/>
        </g>
        <g transform="matrix(1,0,0,1,0.475765,3.24321)">
            <path d="M413.824,46.521L413.912,46.484L413.95,46.394L413.912,46.302L413.732,46.302L413.694,46.394L413.732,46.484L413.82,46.521L413.824,46.521Z" style="fill:white;fill-rule:nonzero;"/>
        </g>
        <g transform="matrix(1,0,0,1,0.475765,3.24321)">
            <path d="M429.348,113.681L426.831,105.232L429.348,113.681Z" style="fill:rgb(213,210,248);fill-rule:nonzero;"/>
        </g>
        <g transform="matrix(1,0,0,1,0.475765,3.24321)">
            <path d="M429.348,113.681L426.831,105.232L432.189,102.656L435.391,109.97L429.348,113.681Z" style="fill:rgb(197,188,212);fill-rule:nonzero;"/>
        </g>
        <g transform="matrix(1,0,0,1,0.475765,3.24321)">
            <path d="M443.497,130.621L431.399,130.621L427.699,114.693L429.348,113.681L435.391,109.97L443.497,130.621ZM433.751,116.645C432.653,116.645 431.763,117.535 431.763,118.633C431.763,119.731 432.653,120.621 433.751,120.621C434.849,120.621 435.739,119.731 435.739,118.633C435.739,117.535 434.849,116.645 433.751,116.645Z" style="fill:rgb(52,107,161);fill-rule:nonzero;"/>
        </g>
        <g transform="matrix(1,0,0,1,0.475765,3.24321)">
            <path d="M433.751,120.621C432.653,120.621 431.763,119.731 431.763,118.633C431.763,117.535 432.653,116.645 433.751,116.645C434.849,116.645 435.739,117.535 435.739,118.633C435.739,119.731 434.849,120.621 433.751,120.621Z" style="fill:rgb(189,188,212);fill-rule:nonzero;"/>
        </g>
    </g>
</svg>
