<?xml version="1.0" encoding="UTF-8" standalone="no"?>
<!DOCTYPE svg PUBLIC "-//W3C//DTD SVG 1.1//EN" "http://www.w3.org/Graphics/SVG/1.1/DTD/svg11.dtd">
<svg width="100%" height="100%" viewBox="0 0 111 109" version="1.1" xmlns="http://www.w3.org/2000/svg" xmlns:xlink="http://www.w3.org/1999/xlink" xml:space="preserve" xmlns:serif="http://www.serif.com/" style="fill-rule:evenodd;clip-rule:evenodd;stroke-linejoin:round;stroke-miterlimit:1.41421;">
    <g transform="matrix(1,0,0,1,-296.526,-167.726)">
        <path d="M298.322,198.482L296.526,198.482L296.526,190.367L304.53,190.367L304.53,192.162L298.322,192.162L298.322,198.482Z" style="fill:rgb(34,67,170);fill-rule:nonzero;"/>
        <path d="M340.965,198.482L342.76,198.482L342.76,190.367L334.756,190.367L334.756,192.162L340.965,192.162L340.965,198.482Z" style="fill:rgb(34,67,170);fill-rule:nonzero;"/>
        <path d="M298.322,268.018L296.526,268.018L296.526,276.133L304.53,276.133L304.53,274.338L298.322,274.338L298.322,268.018Z" style="fill:rgb(34,67,170);fill-rule:nonzero;"/>
        <path d="M340.965,268.018L342.76,268.018L342.76,276.133L334.756,276.133L334.756,274.338L340.965,274.338L340.965,268.018Z" style="fill:rgb(34,67,170);fill-rule:nonzero;"/>
        <path d="M397.185,178.396L397.048,178.396C393.322,178.396 390.301,175.375 390.301,171.649L390.301,169.15L403.932,169.15L403.932,171.649C403.932,175.375 400.911,178.396 397.185,178.396Z" style="fill:rgb(17,22,64);fill-rule:nonzero;"/>
        <rect x="387.517" y="167.726" width="19.2" height="3.975" style="fill:rgb(82,153,211);fill-rule:nonzero;"/>
        <path d="M395.453,175.083C395.453,175.806 394.867,176.392 394.143,176.392C393.42,176.392 392.834,175.806 392.834,175.083C392.834,174.359 393.42,173.773 394.143,173.773C394.867,173.773 395.453,174.359 395.453,175.083Z" style="fill:white;fill-rule:nonzero;"/>
        <path id="_-Кривая-" serif:id="(Кривая)" d="M394.287,174.952L341.816,275.436L296.981,275.418L296.981,190.399L394.287,174.952Z" style="fill:rgb(227,235,250);"/>
        <path d="M298.322,198.482L296.818,198.482L296.526,198.482L296.526,190.367L304.53,190.367L304.53,192.162L298.322,192.162L298.322,198.482Z" style="fill:rgb(63,123,187);fill-rule:nonzero;"/>
        <path d="M342.76,198.482L340.965,198.482L340.965,196.993L340.965,192.162L334.756,192.162L334.756,190.367L342.76,190.367L342.76,198.482Z" style="fill:rgb(63,123,187);fill-rule:nonzero;"/>
        <path d="M304.53,276.133L296.526,276.133L296.526,268.018L298.322,268.018L298.322,274.338L304.53,274.338L304.53,276.133Z" style="fill:rgb(63,123,187);fill-rule:nonzero;"/>
        <path d="M342.76,276.133L334.756,276.133L334.756,274.338L340.965,274.338L340.965,273.218L340.965,268.018L342.76,268.018L342.76,276.133Z" style="fill:rgb(63,123,187);fill-rule:nonzero;"/>
        <path d="M393.105,177.125C392.484,176.676 391.942,176.125 391.505,175.496L392.849,175.285C392.915,175.708 393.182,176.063 393.549,176.25L393.105,177.125Z" style="fill:rgb(50,52,107);fill-rule:nonzero;"/>
        <path d="M393.549,176.25C393.182,176.063 392.915,175.708 392.849,175.285L394.143,175.083L393.549,176.25Z" style="fill:rgb(228,227,250);fill-rule:nonzero;"/>
        <path d="M315.083,234.242L315.127,234.581L315.276,235.076L316.105,235.882C316.221,235.995 316.243,236.153 316.175,236.279L316.444,236.541C316.599,236.692 316.586,236.92 316.416,237.052L316.272,237.127C316.272,237.253 316.202,237.375 316.073,237.448C315.858,237.57 315.577,237.518 315.438,237.336L314.45,236.041C314.376,235.866 314.17,234.333 314.17,234.333C314.141,234.117 314.319,233.925 314.567,233.904C314.823,233.882 315.054,234.026 315.083,234.242Z" style="fill:rgb(254,210,123);fill-rule:nonzero;"/>
        <path d="M316.61,230.423L316.706,231.402C316.729,231.638 316.703,231.874 316.63,232.099L316.436,232.691L316.407,232.917L316.491,234.319C316.505,234.536 316.315,234.718 316.066,234.726C315.808,234.735 315.594,234.565 315.58,234.348L315.518,233.406L315.083,234.287L314.969,235.716L315.616,237.055C315.714,237.256 315.606,237.485 315.377,237.566C315.139,237.65 314.874,237.552 314.776,237.35L314.051,235.738C314.051,235.738 313.904,234.574 313.895,234.209C313.893,234.14 313.909,234.045 313.918,233.948C313.957,233.545 314.097,232.424 314.52,231.545L315.151,229.656L316.61,230.423Z" style="fill:rgb(254,210,123);fill-rule:nonzero;"/>
        <path d="M318.61,218.279L314.688,230.032L317.234,231.155C319.444,228.115 320.896,226.649 322.505,222.345C322.88,220.867 320.169,214.056 318.61,218.279Z" style="fill:rgb(149,143,237);fill-rule:nonzero;"/>
        <path d="M317.234,231.155L316.657,230.901L314.982,230.162L314.688,230.032L318.383,218.958C318.844,221.056 319.66,224.501 320.325,226.865C319.421,228.305 318.441,229.495 317.234,231.155Z" style="fill:rgb(49,130,191);fill-rule:nonzero;"/>
        <path d="M319.149,209.334C321.229,210.564 322.505,206.895 323.396,205.438L322.027,201.515L316.751,203.654L319.149,209.334Z" style="fill:rgb(254,210,123);fill-rule:nonzero;"/>
        <path d="M315.082,206.249C315.379,206.593 315.782,206.812 316.282,206.737L317.372,206.559C317.72,206.474 318.106,206.282 318.477,206.006C319.487,205.239 320.764,202.172 320.768,202.173C321.049,202.124 321.329,202.17 321.573,202.216C322.023,202.301 322.351,202.385 322.336,201.87C322.312,200.992 323.097,199.6 323.05,198.445C322.256,193.383 319.144,194.063 317.258,194.3C315.747,194.559 314.378,195.47 313.773,197.125C313.593,197.614 313.479,198.172 313.45,198.799C313.435,199.124 313.444,199.458 313.473,199.82C313.629,200.136 313.798,200.394 313.798,200.394L313.714,200.676L313.339,201.928C313.256,202.251 313.487,202.572 313.822,202.605L314.324,202.679C314.374,203.017 314.487,204.936 314.487,204.936C314.558,205.378 314.758,205.887 315.082,206.249Z" style="fill:rgb(254,210,123);fill-rule:nonzero;"/>
        <path d="M322.423,202.919C319.083,204.094 320.473,200.068 320.473,200.068C320.473,200.068 318.821,200.25 318.311,200.273C319.648,196.158 316.464,195.266 313.771,197.127C313.252,195.416 315.928,194.064 317.713,193.877C320.263,193.611 322.628,194.474 323.165,196.982C323.478,198.44 323.662,202.678 322.423,202.919Z" style="fill:rgb(19,19,19);fill-rule:nonzero;"/>
        <path d="M321.097,200.33C321.193,201.127 320.633,202.129 320.111,202.192C319.59,202.255 319.57,201.602 319.465,200.806C319.395,200.28 319.171,199.547 319.723,199.31C320.205,199.104 320.955,199.161 321.097,200.33Z" style="fill:rgb(254,210,123);fill-rule:nonzero;"/>
        <path d="M316.09,206.752C315.678,206.752 315.34,206.548 315.082,206.249C315.085,206.25 315.089,206.25 315.092,206.25C315.412,206.25 315.733,206.183 316.031,206.068C316.497,205.891 316.914,205.605 317.295,205.281C317.675,204.957 318.03,204.592 318.287,204.163C318.547,203.735 318.709,203.24 318.694,202.738C318.772,203.297 318.853,203.86 318.842,204.424C318.832,204.972 318.734,205.52 318.477,206.006C318.285,206.149 318.088,206.27 317.895,206.365C317.716,206.453 317.54,206.518 317.372,206.559L316.282,206.737C316.216,206.747 316.152,206.752 316.09,206.752Z" style="fill:rgb(253,191,91);fill-rule:nonzero;"/>
        <path d="M331.293,227.944C330.778,228.222 321.109,229.231 321.109,229.231C320.308,227.645 318.011,217.55 318.022,217.13C317.011,211.999 318.987,207.245 318.987,207.245L319.353,207.046C319.365,206.281 319.41,205.706 320.187,205.172L322.82,203.564L323.355,204.69C325.347,205.132 327.834,206.941 329.179,211.727C330.185,215.305 330.9,218.629 330.954,221.98C330.993,224.422 331.291,227.908 331.293,227.944Z" style="fill:rgb(82,153,211);fill-rule:nonzero;"/>
        <path d="M334.381,271.507L334.397,271.593L334.446,271.869L334.544,272.405L334.586,272.644C334.696,272.642 334.808,272.64 334.918,272.641C335.685,272.629 336.466,272.586 337.031,272.239L336.996,271.67L335.606,271.583L335.366,271.568L334.414,271.509L334.381,271.507Z" style="fill:rgb(47,46,41);fill-rule:nonzero;"/>
        <path d="M326.982,272.231L327.086,272.951C328.616,273.411 331.046,273.291 334.205,272.49C334.318,272.463 334.431,272.434 334.544,272.405C334.731,272.356 334.919,272.304 335.111,272.25C335.716,272.08 336.343,271.887 336.996,271.67L336.906,271.059L336.897,270.995L336.866,270.785L335.853,270.932L335.522,270.982L334.488,271.133L326.982,272.231Z" style="fill:rgb(17,22,64);fill-rule:nonzero;"/>
        <path d="M336.906,271.059C336.654,271.237 336.193,271.416 335.606,271.583C335.258,271.685 334.868,271.781 334.446,271.87L334.335,271.895C331.547,272.478 327.594,272.802 326.982,272.232C326.911,271.739 327.678,271.152 329.093,270.48C329.232,270.417 329.376,270.35 329.53,270.28C329.637,270.234 329.747,270.187 329.862,270.134C330.009,270.073 330.16,270.008 330.317,269.943C330.425,269.899 330.537,269.854 330.648,269.81C330.804,269.748 330.964,269.688 331.128,269.622C331.319,269.548 331.515,269.473 331.717,269.398C331.93,269.319 332.149,269.241 332.375,269.159C333.448,268.774 334.269,268.694 334.895,268.796C335.805,268.943 336.304,269.474 336.581,270.009C336.723,270.284 336.808,270.56 336.857,270.786L336.897,270.994L336.906,271.059Z" style="fill:rgb(166,152,139);fill-rule:nonzero;"/>
        <path d="M322.495,232.834L326.065,251.086L330.505,269.795L330.625,269.818L336.151,270.888L336.9,271.03L337.737,271.193C337.548,269.494 337.063,266.665 336.348,263.395C335.25,258.354 333.608,252.269 331.679,247.684L331.693,233.273L331.698,233.112C331.867,230.731 331.171,229.898 328.989,228.979L327.983,229.004L322.495,232.834Z" style="fill:rgb(17,22,64);fill-rule:nonzero;"/>
        <path d="M306.641,269.039C306.746,269.077 306.85,269.111 306.955,269.149C307.078,269.192 307.199,269.233 307.326,269.27C307.929,269.466 308.541,269.599 309.079,269.487L309.238,268.94L307.959,268.389L307.844,268.339L307.738,268.294L306.861,267.915L306.818,267.989L306.771,268.266L306.684,268.801L306.641,269.039Z" style="fill:rgb(17,22,64);fill-rule:nonzero;"/>
        <path d="M299.479,266.79C300.764,267.742 303.09,268.45 306.335,268.765C306.449,268.779 306.567,268.792 306.684,268.801C306.874,268.817 307.068,268.834 307.268,268.848C307.368,268.855 307.465,268.863 307.568,268.869C308.103,268.904 308.659,268.925 309.238,268.94L309.359,268.335L309.374,268.272L309.417,268.064L308.412,267.859L308.095,267.799L307.061,267.588L299.626,266.079L299.479,266.79Z" style="fill:rgb(17,22,64);fill-rule:nonzero;"/>
        <path d="M299.626,266.079C300.017,266.824 303.84,267.857 306.659,268.251L306.771,268.266C307.146,268.318 307.5,268.355 307.824,268.379L307.959,268.389C308.567,268.431 309.061,268.417 309.359,268.335L309.374,268.272L309.406,268.063C309.436,267.831 309.45,267.546 309.408,267.238C309.394,267.141 309.378,267.038 309.348,266.939C309.259,266.578 309.077,266.209 308.742,265.895C308.601,265.761 308.431,265.635 308.232,265.524C307.678,265.216 306.879,265.015 305.74,265.015C305.498,265.015 305.268,265.013 305.038,265.014C304.825,265.018 304.615,265.021 304.411,265.028L304.155,265.035C303.905,265.04 303.9,265.043 303.895,265.042C303.775,265.045 303.654,265.049 303.54,265.057C303.368,265.062 303.203,265.074 303.043,265.08C302.918,265.089 302.799,265.096 302.682,265.106C302.515,265.119 302.355,265.132 302.205,265.144C300.647,265.299 299.725,265.593 299.626,266.079Z" style="fill:rgb(166,152,139);fill-rule:nonzero;"/>
        <path d="M304.457,264.979C306.546,266.176 309.348,268.396 311.186,268.895C313.373,264.613 314.998,258.403 316.932,248.434C322.675,245.176 326.401,240.675 328.447,236.515C332.973,234.651 332.159,229.752 331.293,227.944L320.991,229.131C321.043,231.271 321.057,230.959 321.106,232.09C318.387,235.474 310.533,246.252 310.11,246.983L304.457,264.979Z" style="fill:rgb(17,22,64);fill-rule:nonzero;"/>
        <path d="M329.546,233.192C329.737,233.079 329.925,232.97 330.116,232.861C329.941,232.977 329.749,233.09 329.546,233.192Z" style="fill:rgb(16,20,59);fill-rule:nonzero;"/>
        <path d="M320.991,229.131C321.011,229.124 321.032,229.117 321.052,229.109C321.054,229.114 321.057,229.119 321.059,229.124L320.991,229.131ZM331.215,226.952C331.138,225.925 331.024,224.266 330.974,222.787L331.223,226.805L331.215,226.952Z" style="fill:rgb(190,187,243);fill-rule:nonzero;"/>
        <path d="M331.293,227.944C331.293,227.932 331.26,227.549 331.215,226.952L331.223,226.805L331.293,227.944Z" style="fill:rgb(187,166,174);fill-rule:nonzero;"/>
        <path d="M330.739,218.982C330.586,217.743 330.358,216.495 330.073,215.225L330.526,215.534L330.739,218.982Z" style="fill:rgb(190,187,243);fill-rule:nonzero;"/>
        <path d="M321.059,229.124C321.057,229.119 321.054,229.114 321.052,229.109C324.797,227.732 327.703,225.921 327.336,222.415L323.396,210.669L330.073,215.225C330.358,216.495 330.586,217.743 330.739,218.982L330.974,222.787C331.024,224.266 331.138,225.925 331.215,226.952C331.26,227.549 331.293,227.932 331.293,227.944L321.059,229.124Z" style="fill:rgb(49,130,191);fill-rule:nonzero;"/>
        <path d="M320.991,229.131L321.059,229.124L331.293,227.944L320.991,229.131Z" style="fill:rgb(14,18,62);fill-rule:nonzero;"/>
        <path d="M335.09,229.375C334.796,229.382 334.597,229.635 334.621,229.929C334.697,231.063 334.649,232.165 334.493,233.215C334.456,233.488 334.638,233.743 334.911,233.797C335.193,233.852 335.456,233.671 335.497,233.38C335.666,232.278 335.723,231.123 335.652,229.936C335.631,229.624 335.372,229.369 335.09,229.375Z" style="fill:rgb(254,210,123);fill-rule:nonzero;"/>
        <path d="M335.197,230.519C334.947,230.609 334.823,230.876 334.91,231.118L336.192,234.654C336.28,234.895 336.547,235.02 336.788,234.932C337.038,234.841 337.163,234.575 337.076,234.333L335.793,230.797C335.706,230.556 335.439,230.431 335.197,230.519Z" style="fill:rgb(254,210,123);fill-rule:nonzero;"/>
        <path d="M336.225,230.587C335.96,230.684 335.823,230.955 335.911,231.196L337.194,234.732C337.281,234.973 337.56,235.094 337.816,235.001C338.081,234.905 338.218,234.634 338.13,234.392L336.847,230.856C336.76,230.615 336.481,230.494 336.225,230.587Z" style="fill:rgb(254,210,123);fill-rule:nonzero;"/>
        <path d="M337.02,229.927C336.764,230.019 336.636,230.287 336.723,230.529L338.006,234.065C338.093,234.306 338.364,234.429 338.61,234.34C338.865,234.247 338.994,233.979 338.907,233.738L337.624,230.202C337.537,229.961 337.266,229.837 337.02,229.927Z" style="fill:rgb(254,210,123);fill-rule:nonzero;"/>
        <path d="M337.949,229.977C337.727,230.058 337.616,230.295 337.694,230.509L338.566,232.86C338.644,233.074 338.881,233.185 339.095,233.107C339.317,233.026 339.428,232.789 339.35,232.575L338.478,230.225C338.401,230.01 338.164,229.899 337.949,229.977Z" style="fill:rgb(254,210,123);fill-rule:nonzero;"/>
        <path d="M336.61,226.882L334.356,227.699L335.204,230.037L337.458,229.22L336.61,226.882Z" style="fill:rgb(255,201,144);fill-rule:nonzero;"/>
        <path d="M338.486,231.425C338.263,231.506 338.027,231.395 337.949,231.181L338,231.323C338.088,231.564 337.963,231.831 337.722,231.919C337.472,232.009 337.205,231.885 337.117,231.643L337.165,231.775C337.253,232.016 337.128,232.283 336.886,232.371C336.636,232.461 336.37,232.337 336.282,232.095C336.37,232.337 336.245,232.603 336.003,232.691C335.753,232.782 335.486,232.657 335.399,232.416L335.074,231.519L335.016,231.359L334.692,230.467C334.434,229.757 334.802,228.972 335.512,228.714L336.373,228.402C337.083,228.144 337.868,228.511 338.126,229.222L338.449,230.114L338.507,230.274L338.733,230.896C338.811,231.111 338.7,231.347 338.486,231.425Z" style="fill:rgb(254,210,123);fill-rule:nonzero;"/>
        <path d="M326.668,208.541L333.331,216.612L329.491,219.741L322.717,212.356C321.724,211.351 320.616,208.998 321.967,207.758C321.967,207.758 324.201,205.746 326.668,208.541Z" style="fill:rgb(82,153,211);fill-rule:nonzero;"/>
        <path d="M329.491,219.741L334.562,229.372L337.564,228.203C336.783,224.527 335.454,220.688 333.331,216.612C332.483,215.344 327.395,215.757 329.491,219.741Z" style="fill:rgb(82,153,211);fill-rule:nonzero;"/>
    </g>
</svg>
